solid neopixeljig
facet normal 0.0 0.0 -1.0
  outer loop
    vertex -160.9107033048434 -106.36086722319243 0.0
    vertex -152.07923009198785 -112.82608434783438 0.0
    vertex -158.33102513578086 -116.39691341678515 0.0
  endloop
endfacet
facet normal 0.0 0.0 -1.0
  outer loop
    vertex -152.07923009198785 -112.82608434783438 0.0
    vertex -160.9107033048434 -106.36086722319243 0.0
    vertex -93.95170436317316 -106.36086722319243 0.0
  endloop
endfacet
facet normal 0.0 0.0 -1.0
  outer loop
    vertex -152.07923009198785 -112.82608434783438 0.0
    vertex -93.95170436317316 -106.36086722319243 0.0
    vertex -147.0790377355728 -112.82608434783438 0.0
  endloop
endfacet
facet normal 0.0 0.0 -1.0
  outer loop
    vertex -147.0790377355728 -112.82608434783438 0.0
    vertex -93.95170436317316 -106.36086722319243 0.0
    vertex -145.68222726148758 -112.82608434783438 0.0
  endloop
endfacet
facet normal 0.0 0.0 -1.0
  outer loop
    vertex -147.0790377355728 -112.82608434783438 0.0
    vertex -145.68222726148758 -112.82608434783438 0.0
    vertex -147.0790377355728 -116.39691341678515 0.0
  endloop
endfacet
facet normal 0.0 0.0 -1.0
  outer loop
    vertex -145.68222726148758 -112.82608434783438 0.0
    vertex -93.95170436317316 -106.36086722319243 0.0
    vertex -140.68203102452998 -112.82608434783438 0.0
  endloop
endfacet
facet normal 0.0 0.0 -1.0
  outer loop
    vertex -140.68203102452998 -112.82608434783438 0.0
    vertex -93.95170436317316 -106.36086722319243 0.0
    vertex -139.38857527431358 -112.82608434783438 0.0
  endloop
endfacet
facet normal 0.0 0.0 -1.0
  outer loop
    vertex -140.68203102452998 -112.82608434783438 0.0
    vertex -139.38857527431358 -112.82608434783438 0.0
    vertex -140.68203102452998 -116.39691341678515 0.0
  endloop
endfacet
facet normal 0.0 0.0 -1.0
  outer loop
    vertex -139.38857527431358 -112.82608434783438 0.0
    vertex -93.95170436317316 -106.36086722319243 0.0
    vertex -134.38838221234536 -112.82608434783438 0.0
  endloop
endfacet
facet normal 0.0 0.0 -1.0
  outer loop
    vertex -134.38838221234536 -112.82608434783438 0.0
    vertex -93.95170436317316 -106.36086722319243 0.0
    vertex -133.0484167481939 -112.82608434783438 0.0
  endloop
endfacet
facet normal 0.0 0.0 -1.0
  outer loop
    vertex -134.38838221234536 -112.82608434783438 0.0
    vertex -133.0484167481939 -112.82608434783438 0.0
    vertex -134.38838221234536 -116.39691341678515 0.0
  endloop
endfacet
facet normal 0.0 0.0 -1.0
  outer loop
    vertex -133.0484167481939 -112.82608434783438 0.0
    vertex -93.95170436317316 -106.36086722319243 0.0
    vertex -128.04822333344904 -112.82608434783438 0.0
  endloop
endfacet
facet normal 0.0 0.0 -1.0
  outer loop
    vertex -128.04822333344904 -112.82608434783438 0.0
    vertex -93.95170436317316 -106.36086722319243 0.0
    vertex -126.61575808135652 -112.82608434783438 0.0
  endloop
endfacet
facet normal 0.0 0.0 -1.0
  outer loop
    vertex -128.04822333344904 -112.82608434783438 0.0
    vertex -126.61575808135652 -112.82608434783438 0.0
    vertex -128.04822333344904 -116.39691341678515 0.0
  endloop
endfacet
facet normal 0.0 0.0 -1.0
  outer loop
    vertex -126.61575808135652 -112.82608434783438 0.0
    vertex -93.95170436317316 -106.36086722319243 0.0
    vertex -121.61608501209415 -112.82608434783438 0.0
  endloop
endfacet
facet normal 0.0 0.0 -1.0
  outer loop
    vertex -121.61608501209415 -112.82608434783438 0.0
    vertex -93.95170436317316 -106.36086722319243 0.0
    vertex -120.22960948123091 -112.82608434783438 0.0
  endloop
endfacet
facet normal 0.0 0.0 -1.0
  outer loop
    vertex -121.61608501209415 -112.82608434783438 0.0
    vertex -120.22960948123091 -112.82608434783438 0.0
    vertex -121.61608501209415 -116.39691341678515 0.0
  endloop
endfacet
facet normal 0.0 0.0 -1.0
  outer loop
    vertex -120.22960948123091 -112.82608434783438 0.0
    vertex -93.95170436317316 -106.36086722319243 0.0
    vertex -115.22992335923439 -112.82608434783438 0.0
  endloop
endfacet
facet normal 0.0 0.0 -1.0
  outer loop
    vertex -115.22992335923439 -112.82608434783438 0.0
    vertex -93.95170436317316 -106.36086722319243 0.0
    vertex -113.88944778012178 -112.82608434783438 0.0
  endloop
endfacet
facet normal 0.0 0.0 -1.0
  outer loop
    vertex -115.22992335923439 -112.82608434783438 0.0
    vertex -113.88944778012178 -112.82608434783438 0.0
    vertex -115.22992335923439 -116.39691341678515 0.0
  endloop
endfacet
facet normal 0.0 0.0 -1.0
  outer loop
    vertex -113.88944778012178 -112.82608434783438 0.0
    vertex -93.95170436317316 -106.36086722319243 0.0
    vertex -108.88976448033807 -112.82608434783438 0.0
  endloop
endfacet
facet normal 0.0 0.0 -1.0
  outer loop
    vertex -108.88976448033807 -112.82608434783438 0.0
    vertex -93.95170436317316 -106.36086722319243 0.0
    vertex -107.50328894947488 -112.82608434783438 0.0
  endloop
endfacet
facet normal 0.0 0.0 -1.0
  outer loop
    vertex -108.88976448033807 -112.82608434783438 0.0
    vertex -107.50328894947488 -112.82608434783438 0.0
    vertex -108.88976448033807 -116.39691341678515 0.0
  endloop
endfacet
facet normal 0.0 0.0 -1.0
  outer loop
    vertex -107.50328894947488 -112.82608434783438 0.0
    vertex -93.95170436317316 -106.36086722319243 0.0
    vertex -102.50361588021244 -112.82608434783438 0.0
  endloop
endfacet
facet normal 0.0 0.0 -1.0
  outer loop
    vertex -102.50361588021244 -112.82608434783438 0.0
    vertex -93.95170436317316 -106.36086722319243 0.0
    vertex -102.50361588021244 -116.39691341678515 0.0
  endloop
endfacet
facet normal 0.0 0.0 -1.0
  outer loop
    vertex -102.50361588021244 -116.39691341678515 0.0
    vertex -93.95170436317316 -106.36086722319243 0.0
    vertex -96.49056592704297 -116.39691341678515 0.0
  endloop
endfacet
facet normal 0.0 0.0 -1.0
  outer loop
    vertex -107.50328894947488 -116.39691341678515 0.0
    vertex -108.88976448033807 -116.39691341678515 0.0
    vertex -107.50328894947488 -112.82608434783438 0.0
  endloop
endfacet
facet normal 0.0 0.0 -1.0
  outer loop
    vertex -113.88944778012178 -116.39691341678515 0.0
    vertex -115.22992335923439 -116.39691341678515 0.0
    vertex -113.88944778012178 -112.82608434783438 0.0
  endloop
endfacet
facet normal 0.0 0.0 -1.0
  outer loop
    vertex -120.22960948123091 -116.39691341678515 0.0
    vertex -121.61608501209415 -116.39691341678515 0.0
    vertex -120.22960948123091 -112.82608434783438 0.0
  endloop
endfacet
facet normal 0.0 0.0 -1.0
  outer loop
    vertex -126.61575808135652 -116.39691341678515 0.0
    vertex -128.04822333344904 -116.39691341678515 0.0
    vertex -126.61575808135652 -112.82608434783438 0.0
  endloop
endfacet
facet normal 0.0 0.0 -1.0
  outer loop
    vertex -133.0484167481939 -116.39691341678515 0.0
    vertex -134.38838221234536 -116.39691341678515 0.0
    vertex -133.0484167481939 -112.82608434783438 0.0
  endloop
endfacet
facet normal 0.0 0.0 -1.0
  outer loop
    vertex -139.38857527431358 -116.39691341678515 0.0
    vertex -140.68203102452998 -116.39691341678515 0.0
    vertex -139.38857527431358 -112.82608434783438 0.0
  endloop
endfacet
facet normal 0.0 0.0 -1.0
  outer loop
    vertex -145.68222726148758 -116.39691341678515 0.0
    vertex -147.0790377355728 -116.39691341678515 0.0
    vertex -145.68222726148758 -112.82608434783438 0.0
  endloop
endfacet
facet normal 0.0 0.0 -1.0
  outer loop
    vertex -152.07923009198785 -116.39691341678515 0.0
    vertex -158.33102513578086 -116.39691341678515 0.0
    vertex -152.07923009198785 -112.82608434783438 0.0
  endloop
endfacet
facet normal -0.0 -0.0 1.0
  outer loop
    vertex -145.68222726148758 -116.39691341678515 3.0
    vertex -147.0790377355728 -112.82608434783438 3.0
    vertex -147.0790377355728 -116.39691341678515 3.0
  endloop
endfacet
facet normal -0.0 -0.0 1.0
  outer loop
    vertex -139.38857527431358 -116.39691341678515 3.0
    vertex -140.68203102452998 -112.82608434783438 3.0
    vertex -140.68203102452998 -116.39691341678515 3.0
  endloop
endfacet
facet normal -0.0 -0.0 1.0
  outer loop
    vertex -133.0484167481939 -116.39691341678515 3.0
    vertex -134.38838221234536 -112.82608434783438 3.0
    vertex -134.38838221234536 -116.39691341678515 3.0
  endloop
endfacet
facet normal -0.0 -0.0 1.0
  outer loop
    vertex -126.61575808135652 -116.39691341678515 3.0
    vertex -128.04822333344904 -112.82608434783438 3.0
    vertex -128.04822333344904 -116.39691341678515 3.0
  endloop
endfacet
facet normal -0.0 -0.0 1.0
  outer loop
    vertex -120.22960948123091 -116.39691341678515 3.0
    vertex -121.61608501209415 -112.82608434783438 3.0
    vertex -121.61608501209415 -116.39691341678515 3.0
  endloop
endfacet
facet normal -0.0 -0.0 1.0
  outer loop
    vertex -113.88944778012178 -116.39691341678515 3.0
    vertex -115.22992335923439 -112.82608434783438 3.0
    vertex -115.22992335923439 -116.39691341678515 3.0
  endloop
endfacet
facet normal -0.0 -0.0 1.0
  outer loop
    vertex -107.50328894947488 -116.39691341678515 3.0
    vertex -108.88976448033807 -112.82608434783438 3.0
    vertex -108.88976448033807 -116.39691341678515 3.0
  endloop
endfacet
facet normal -0.0 -0.0 1.0
  outer loop
    vertex -96.49056592704297 -116.39691341678515 3.0
    vertex -102.50361588021244 -112.82608434783438 3.0
    vertex -102.50361588021244 -116.39691341678515 3.0
  endloop
endfacet
facet normal -0.0 -0.0 1.0
  outer loop
    vertex -160.9107033048434 -106.36086722319243 3.0
    vertex -152.07923009198785 -112.82608434783438 3.0
    vertex -93.95170436317316 -106.36086722319243 3.0
  endloop
endfacet
facet normal -0.0 -0.0 1.0
  outer loop
    vertex -152.07923009198785 -112.82608434783438 3.0
    vertex -160.9107033048434 -106.36086722319243 3.0
    vertex -158.33102513578086 -116.39691341678515 3.0
  endloop
endfacet
facet normal -0.0 -0.0 1.0
  outer loop
    vertex -152.07923009198785 -112.82608434783438 3.0
    vertex -158.33102513578086 -116.39691341678515 3.0
    vertex -152.07923009198785 -116.39691341678515 3.0
  endloop
endfacet
facet normal -0.0 -0.0 1.0
  outer loop
    vertex -93.95170436317316 -106.36086722319243 3.0
    vertex -152.07923009198785 -112.82608434783438 3.0
    vertex -147.0790377355728 -112.82608434783438 3.0
  endloop
endfacet
facet normal -0.0 -0.0 1.0
  outer loop
    vertex -93.95170436317316 -106.36086722319243 3.0
    vertex -147.0790377355728 -112.82608434783438 3.0
    vertex -145.68222726148758 -112.82608434783438 3.0
  endloop
endfacet
facet normal -0.0 -0.0 1.0
  outer loop
    vertex -145.68222726148758 -112.82608434783438 3.0
    vertex -147.0790377355728 -112.82608434783438 3.0
    vertex -145.68222726148758 -116.39691341678515 3.0
  endloop
endfacet
facet normal -0.0 -0.0 1.0
  outer loop
    vertex -93.95170436317316 -106.36086722319243 3.0
    vertex -145.68222726148758 -112.82608434783438 3.0
    vertex -140.68203102452998 -112.82608434783438 3.0
  endloop
endfacet
facet normal -0.0 -0.0 1.0
  outer loop
    vertex -93.95170436317316 -106.36086722319243 3.0
    vertex -140.68203102452998 -112.82608434783438 3.0
    vertex -139.38857527431358 -112.82608434783438 3.0
  endloop
endfacet
facet normal -0.0 -0.0 1.0
  outer loop
    vertex -139.38857527431358 -112.82608434783438 3.0
    vertex -140.68203102452998 -112.82608434783438 3.0
    vertex -139.38857527431358 -116.39691341678515 3.0
  endloop
endfacet
facet normal -0.0 -0.0 1.0
  outer loop
    vertex -93.95170436317316 -106.36086722319243 3.0
    vertex -139.38857527431358 -112.82608434783438 3.0
    vertex -134.38838221234536 -112.82608434783438 3.0
  endloop
endfacet
facet normal -0.0 -0.0 1.0
  outer loop
    vertex -93.95170436317316 -106.36086722319243 3.0
    vertex -134.38838221234536 -112.82608434783438 3.0
    vertex -133.0484167481939 -112.82608434783438 3.0
  endloop
endfacet
facet normal -0.0 -0.0 1.0
  outer loop
    vertex -133.0484167481939 -112.82608434783438 3.0
    vertex -134.38838221234536 -112.82608434783438 3.0
    vertex -133.0484167481939 -116.39691341678515 3.0
  endloop
endfacet
facet normal -0.0 -0.0 1.0
  outer loop
    vertex -93.95170436317316 -106.36086722319243 3.0
    vertex -133.0484167481939 -112.82608434783438 3.0
    vertex -128.04822333344904 -112.82608434783438 3.0
  endloop
endfacet
facet normal -0.0 -0.0 1.0
  outer loop
    vertex -93.95170436317316 -106.36086722319243 3.0
    vertex -128.04822333344904 -112.82608434783438 3.0
    vertex -126.61575808135652 -112.82608434783438 3.0
  endloop
endfacet
facet normal -0.0 -0.0 1.0
  outer loop
    vertex -126.61575808135652 -112.82608434783438 3.0
    vertex -128.04822333344904 -112.82608434783438 3.0
    vertex -126.61575808135652 -116.39691341678515 3.0
  endloop
endfacet
facet normal -0.0 -0.0 1.0
  outer loop
    vertex -93.95170436317316 -106.36086722319243 3.0
    vertex -126.61575808135652 -112.82608434783438 3.0
    vertex -121.61608501209415 -112.82608434783438 3.0
  endloop
endfacet
facet normal -0.0 -0.0 1.0
  outer loop
    vertex -93.95170436317316 -106.36086722319243 3.0
    vertex -121.61608501209415 -112.82608434783438 3.0
    vertex -120.22960948123091 -112.82608434783438 3.0
  endloop
endfacet
facet normal -0.0 -0.0 1.0
  outer loop
    vertex -120.22960948123091 -112.82608434783438 3.0
    vertex -121.61608501209415 -112.82608434783438 3.0
    vertex -120.22960948123091 -116.39691341678515 3.0
  endloop
endfacet
facet normal -0.0 -0.0 1.0
  outer loop
    vertex -93.95170436317316 -106.36086722319243 3.0
    vertex -120.22960948123091 -112.82608434783438 3.0
    vertex -115.22992335923439 -112.82608434783438 3.0
  endloop
endfacet
facet normal -0.0 -0.0 1.0
  outer loop
    vertex -93.95170436317316 -106.36086722319243 3.0
    vertex -115.22992335923439 -112.82608434783438 3.0
    vertex -113.88944778012178 -112.82608434783438 3.0
  endloop
endfacet
facet normal -0.0 -0.0 1.0
  outer loop
    vertex -113.88944778012178 -112.82608434783438 3.0
    vertex -115.22992335923439 -112.82608434783438 3.0
    vertex -113.88944778012178 -116.39691341678515 3.0
  endloop
endfacet
facet normal -0.0 -0.0 1.0
  outer loop
    vertex -93.95170436317316 -106.36086722319243 3.0
    vertex -113.88944778012178 -112.82608434783438 3.0
    vertex -108.88976448033807 -112.82608434783438 3.0
  endloop
endfacet
facet normal -0.0 -0.0 1.0
  outer loop
    vertex -93.95170436317316 -106.36086722319243 3.0
    vertex -108.88976448033807 -112.82608434783438 3.0
    vertex -107.50328894947488 -112.82608434783438 3.0
  endloop
endfacet
facet normal -0.0 -0.0 1.0
  outer loop
    vertex -107.50328894947488 -112.82608434783438 3.0
    vertex -108.88976448033807 -112.82608434783438 3.0
    vertex -107.50328894947488 -116.39691341678515 3.0
  endloop
endfacet
facet normal -0.0 -0.0 1.0
  outer loop
    vertex -93.95170436317316 -106.36086722319243 3.0
    vertex -107.50328894947488 -112.82608434783438 3.0
    vertex -102.50361588021244 -112.82608434783438 3.0
  endloop
endfacet
facet normal -0.0 -0.0 1.0
  outer loop
    vertex -93.95170436317316 -106.36086722319243 3.0
    vertex -102.50361588021244 -112.82608434783438 3.0
    vertex -96.49056592704297 -116.39691341678515 3.0
  endloop
endfacet
facet normal -0.0 -1.0 -0.0
  outer loop
    vertex -145.68222726148758 -116.39691341678515 3.0
    vertex -147.0790377355728 -116.39691341678515 0.0
    vertex -145.68222726148758 -116.39691341678515 0.0
  endloop
endfacet
facet normal -0.0 -1.0 -0.0
  outer loop
    vertex -147.0790377355728 -116.39691341678515 0.0
    vertex -145.68222726148758 -116.39691341678515 3.0
    vertex -147.0790377355728 -116.39691341678515 3.0
  endloop
endfacet
facet normal -1.0 0.0 0.0
  outer loop
    vertex -147.0790377355728 -112.82608434783438 3.0
    vertex -147.0790377355728 -116.39691341678515 0.0
    vertex -147.0790377355728 -116.39691341678515 3.0
  endloop
endfacet
facet normal -1.0 0.0 0.0
  outer loop
    vertex -147.0790377355728 -116.39691341678515 0.0
    vertex -147.0790377355728 -112.82608434783438 3.0
    vertex -147.0790377355728 -112.82608434783438 0.0
  endloop
endfacet
facet normal -0.0 -1.0 -0.0
  outer loop
    vertex -147.0790377355728 -112.82608434783438 3.0
    vertex -152.07923009198785 -112.82608434783438 0.0
    vertex -147.0790377355728 -112.82608434783438 0.0
  endloop
endfacet
facet normal -0.0 -1.0 -0.0
  outer loop
    vertex -152.07923009198785 -112.82608434783438 0.0
    vertex -147.0790377355728 -112.82608434783438 3.0
    vertex -152.07923009198785 -112.82608434783438 3.0
  endloop
endfacet
facet normal 1.0 0.0 0.0
  outer loop
    vertex -152.07923009198785 -112.82608434783438 0.0
    vertex -152.07923009198785 -116.39691341678515 3.0
    vertex -152.07923009198785 -116.39691341678515 0.0
  endloop
endfacet
facet normal 1.0 0.0 0.0
  outer loop
    vertex -152.07923009198785 -116.39691341678515 3.0
    vertex -152.07923009198785 -112.82608434783438 0.0
    vertex -152.07923009198785 -112.82608434783438 3.0
  endloop
endfacet
facet normal -0.0 -1.0 -0.0
  outer loop
    vertex -152.07923009198785 -116.39691341678515 3.0
    vertex -158.33102513578086 -116.39691341678515 0.0
    vertex -152.07923009198785 -116.39691341678515 0.0
  endloop
endfacet
facet normal -0.0 -1.0 -0.0
  outer loop
    vertex -158.33102513578086 -116.39691341678515 0.0
    vertex -152.07923009198785 -116.39691341678515 3.0
    vertex -158.33102513578086 -116.39691341678515 3.0
  endloop
endfacet
facet normal -0.9685166564936283 -0.24894876198608307 -0.0
  outer loop
    vertex -160.9107033048434 -106.36086722319243 3.0
    vertex -158.33102513578086 -116.39691341678515 0.0
    vertex -158.33102513578086 -116.39691341678515 3.0
  endloop
endfacet
facet normal -0.9685166564936283 -0.24894876198608307 -0.0
  outer loop
    vertex -158.33102513578086 -116.39691341678515 0.0
    vertex -160.9107033048434 -106.36086722319243 3.0
    vertex -160.9107033048434 -106.36086722319243 0.0
  endloop
endfacet
facet normal -0.0 1.0 0.0
  outer loop
    vertex -160.9107033048434 -106.36086722319243 3.0
    vertex -93.95170436317316 -106.36086722319243 0.0
    vertex -160.9107033048434 -106.36086722319243 0.0
  endloop
endfacet
facet normal -0.0 1.0 0.0
  outer loop
    vertex -93.95170436317316 -106.36086722319243 0.0
    vertex -160.9107033048434 -106.36086722319243 3.0
    vertex -93.95170436317316 -106.36086722319243 3.0
  endloop
endfacet
facet normal 0.9694602463378703 -0.24524850819223348 0.0
  outer loop
    vertex -93.95170436317316 -106.36086722319243 0.0
    vertex -96.49056592704297 -116.39691341678515 3.0
    vertex -96.49056592704297 -116.39691341678515 0.0
  endloop
endfacet
facet normal 0.9694602463378703 -0.24524850819223348 0.0
  outer loop
    vertex -96.49056592704297 -116.39691341678515 3.0
    vertex -93.95170436317316 -106.36086722319243 0.0
    vertex -93.95170436317316 -106.36086722319243 3.0
  endloop
endfacet
facet normal -0.0 -1.0 -0.0
  outer loop
    vertex -96.49056592704297 -116.39691341678515 3.0
    vertex -102.50361588021244 -116.39691341678515 0.0
    vertex -96.49056592704297 -116.39691341678515 0.0
  endloop
endfacet
facet normal -0.0 -1.0 -0.0
  outer loop
    vertex -102.50361588021244 -116.39691341678515 0.0
    vertex -96.49056592704297 -116.39691341678515 3.0
    vertex -102.50361588021244 -116.39691341678515 3.0
  endloop
endfacet
facet normal -1.0 0.0 0.0
  outer loop
    vertex -102.50361588021244 -112.82608434783438 3.0
    vertex -102.50361588021244 -116.39691341678515 0.0
    vertex -102.50361588021244 -116.39691341678515 3.0
  endloop
endfacet
facet normal -1.0 0.0 0.0
  outer loop
    vertex -102.50361588021244 -116.39691341678515 0.0
    vertex -102.50361588021244 -112.82608434783438 3.0
    vertex -102.50361588021244 -112.82608434783438 0.0
  endloop
endfacet
facet normal -0.0 -1.0 -0.0
  outer loop
    vertex -102.50361588021244 -112.82608434783438 3.0
    vertex -107.50328894947488 -112.82608434783438 0.0
    vertex -102.50361588021244 -112.82608434783438 0.0
  endloop
endfacet
facet normal -0.0 -1.0 -0.0
  outer loop
    vertex -107.50328894947488 -112.82608434783438 0.0
    vertex -102.50361588021244 -112.82608434783438 3.0
    vertex -107.50328894947488 -112.82608434783438 3.0
  endloop
endfacet
facet normal 1.0 0.0 0.0
  outer loop
    vertex -107.50328894947488 -112.82608434783438 0.0
    vertex -107.50328894947488 -116.39691341678515 3.0
    vertex -107.50328894947488 -116.39691341678515 0.0
  endloop
endfacet
facet normal 1.0 0.0 0.0
  outer loop
    vertex -107.50328894947488 -116.39691341678515 3.0
    vertex -107.50328894947488 -112.82608434783438 0.0
    vertex -107.50328894947488 -112.82608434783438 3.0
  endloop
endfacet
facet normal -0.0 -1.0 -0.0
  outer loop
    vertex -107.50328894947488 -116.39691341678515 3.0
    vertex -108.88976448033807 -116.39691341678515 0.0
    vertex -107.50328894947488 -116.39691341678515 0.0
  endloop
endfacet
facet normal -0.0 -1.0 -0.0
  outer loop
    vertex -108.88976448033807 -116.39691341678515 0.0
    vertex -107.50328894947488 -116.39691341678515 3.0
    vertex -108.88976448033807 -116.39691341678515 3.0
  endloop
endfacet
facet normal -1.0 0.0 0.0
  outer loop
    vertex -108.88976448033807 -112.82608434783438 3.0
    vertex -108.88976448033807 -116.39691341678515 0.0
    vertex -108.88976448033807 -116.39691341678515 3.0
  endloop
endfacet
facet normal -1.0 0.0 0.0
  outer loop
    vertex -108.88976448033807 -116.39691341678515 0.0
    vertex -108.88976448033807 -112.82608434783438 3.0
    vertex -108.88976448033807 -112.82608434783438 0.0
  endloop
endfacet
facet normal -0.0 -1.0 -0.0
  outer loop
    vertex -108.88976448033807 -112.82608434783438 3.0
    vertex -113.88944778012178 -112.82608434783438 0.0
    vertex -108.88976448033807 -112.82608434783438 0.0
  endloop
endfacet
facet normal -0.0 -1.0 -0.0
  outer loop
    vertex -113.88944778012178 -112.82608434783438 0.0
    vertex -108.88976448033807 -112.82608434783438 3.0
    vertex -113.88944778012178 -112.82608434783438 3.0
  endloop
endfacet
facet normal 1.0 0.0 0.0
  outer loop
    vertex -113.88944778012178 -112.82608434783438 0.0
    vertex -113.88944778012178 -116.39691341678515 3.0
    vertex -113.88944778012178 -116.39691341678515 0.0
  endloop
endfacet
facet normal 1.0 0.0 0.0
  outer loop
    vertex -113.88944778012178 -116.39691341678515 3.0
    vertex -113.88944778012178 -112.82608434783438 0.0
    vertex -113.88944778012178 -112.82608434783438 3.0
  endloop
endfacet
facet normal -0.0 -1.0 -0.0
  outer loop
    vertex -113.88944778012178 -116.39691341678515 3.0
    vertex -115.22992335923439 -116.39691341678515 0.0
    vertex -113.88944778012178 -116.39691341678515 0.0
  endloop
endfacet
facet normal -0.0 -1.0 -0.0
  outer loop
    vertex -115.22992335923439 -116.39691341678515 0.0
    vertex -113.88944778012178 -116.39691341678515 3.0
    vertex -115.22992335923439 -116.39691341678515 3.0
  endloop
endfacet
facet normal -1.0 0.0 0.0
  outer loop
    vertex -115.22992335923439 -112.82608434783438 3.0
    vertex -115.22992335923439 -116.39691341678515 0.0
    vertex -115.22992335923439 -116.39691341678515 3.0
  endloop
endfacet
facet normal -1.0 0.0 0.0
  outer loop
    vertex -115.22992335923439 -116.39691341678515 0.0
    vertex -115.22992335923439 -112.82608434783438 3.0
    vertex -115.22992335923439 -112.82608434783438 0.0
  endloop
endfacet
facet normal -0.0 -1.0 -0.0
  outer loop
    vertex -115.22992335923439 -112.82608434783438 3.0
    vertex -120.22960948123091 -112.82608434783438 0.0
    vertex -115.22992335923439 -112.82608434783438 0.0
  endloop
endfacet
facet normal -0.0 -1.0 -0.0
  outer loop
    vertex -120.22960948123091 -112.82608434783438 0.0
    vertex -115.22992335923439 -112.82608434783438 3.0
    vertex -120.22960948123091 -112.82608434783438 3.0
  endloop
endfacet
facet normal 1.0 0.0 0.0
  outer loop
    vertex -120.22960948123091 -112.82608434783438 0.0
    vertex -120.22960948123091 -116.39691341678515 3.0
    vertex -120.22960948123091 -116.39691341678515 0.0
  endloop
endfacet
facet normal 1.0 0.0 0.0
  outer loop
    vertex -120.22960948123091 -116.39691341678515 3.0
    vertex -120.22960948123091 -112.82608434783438 0.0
    vertex -120.22960948123091 -112.82608434783438 3.0
  endloop
endfacet
facet normal -0.0 -1.0 -0.0
  outer loop
    vertex -120.22960948123091 -116.39691341678515 3.0
    vertex -121.61608501209415 -116.39691341678515 0.0
    vertex -120.22960948123091 -116.39691341678515 0.0
  endloop
endfacet
facet normal -0.0 -1.0 -0.0
  outer loop
    vertex -121.61608501209415 -116.39691341678515 0.0
    vertex -120.22960948123091 -116.39691341678515 3.0
    vertex -121.61608501209415 -116.39691341678515 3.0
  endloop
endfacet
facet normal -1.0 0.0 0.0
  outer loop
    vertex -121.61608501209415 -112.82608434783438 3.0
    vertex -121.61608501209415 -116.39691341678515 0.0
    vertex -121.61608501209415 -116.39691341678515 3.0
  endloop
endfacet
facet normal -1.0 0.0 0.0
  outer loop
    vertex -121.61608501209415 -116.39691341678515 0.0
    vertex -121.61608501209415 -112.82608434783438 3.0
    vertex -121.61608501209415 -112.82608434783438 0.0
  endloop
endfacet
facet normal -0.0 -1.0 -0.0
  outer loop
    vertex -121.61608501209415 -112.82608434783438 3.0
    vertex -126.61575808135652 -112.82608434783438 0.0
    vertex -121.61608501209415 -112.82608434783438 0.0
  endloop
endfacet
facet normal -0.0 -1.0 -0.0
  outer loop
    vertex -126.61575808135652 -112.82608434783438 0.0
    vertex -121.61608501209415 -112.82608434783438 3.0
    vertex -126.61575808135652 -112.82608434783438 3.0
  endloop
endfacet
facet normal 1.0 0.0 0.0
  outer loop
    vertex -126.61575808135652 -112.82608434783438 0.0
    vertex -126.61575808135652 -116.39691341678515 3.0
    vertex -126.61575808135652 -116.39691341678515 0.0
  endloop
endfacet
facet normal 1.0 0.0 0.0
  outer loop
    vertex -126.61575808135652 -116.39691341678515 3.0
    vertex -126.61575808135652 -112.82608434783438 0.0
    vertex -126.61575808135652 -112.82608434783438 3.0
  endloop
endfacet
facet normal -0.0 -1.0 -0.0
  outer loop
    vertex -126.61575808135652 -116.39691341678515 3.0
    vertex -128.04822333344904 -116.39691341678515 0.0
    vertex -126.61575808135652 -116.39691341678515 0.0
  endloop
endfacet
facet normal -0.0 -1.0 -0.0
  outer loop
    vertex -128.04822333344904 -116.39691341678515 0.0
    vertex -126.61575808135652 -116.39691341678515 3.0
    vertex -128.04822333344904 -116.39691341678515 3.0
  endloop
endfacet
facet normal -1.0 0.0 0.0
  outer loop
    vertex -128.04822333344904 -112.82608434783438 3.0
    vertex -128.04822333344904 -116.39691341678515 0.0
    vertex -128.04822333344904 -116.39691341678515 3.0
  endloop
endfacet
facet normal -1.0 0.0 0.0
  outer loop
    vertex -128.04822333344904 -116.39691341678515 0.0
    vertex -128.04822333344904 -112.82608434783438 3.0
    vertex -128.04822333344904 -112.82608434783438 0.0
  endloop
endfacet
facet normal -0.0 -1.0 -0.0
  outer loop
    vertex -128.04822333344904 -112.82608434783438 3.0
    vertex -133.0484167481939 -112.82608434783438 0.0
    vertex -128.04822333344904 -112.82608434783438 0.0
  endloop
endfacet
facet normal -0.0 -1.0 -0.0
  outer loop
    vertex -133.0484167481939 -112.82608434783438 0.0
    vertex -128.04822333344904 -112.82608434783438 3.0
    vertex -133.0484167481939 -112.82608434783438 3.0
  endloop
endfacet
facet normal 1.0 0.0 0.0
  outer loop
    vertex -133.0484167481939 -112.82608434783438 0.0
    vertex -133.0484167481939 -116.39691341678515 3.0
    vertex -133.0484167481939 -116.39691341678515 0.0
  endloop
endfacet
facet normal 1.0 0.0 0.0
  outer loop
    vertex -133.0484167481939 -116.39691341678515 3.0
    vertex -133.0484167481939 -112.82608434783438 0.0
    vertex -133.0484167481939 -112.82608434783438 3.0
  endloop
endfacet
facet normal -0.0 -1.0 -0.0
  outer loop
    vertex -133.0484167481939 -116.39691341678515 3.0
    vertex -134.38838221234536 -116.39691341678515 0.0
    vertex -133.0484167481939 -116.39691341678515 0.0
  endloop
endfacet
facet normal -0.0 -1.0 -0.0
  outer loop
    vertex -134.38838221234536 -116.39691341678515 0.0
    vertex -133.0484167481939 -116.39691341678515 3.0
    vertex -134.38838221234536 -116.39691341678515 3.0
  endloop
endfacet
facet normal -1.0 0.0 0.0
  outer loop
    vertex -134.38838221234536 -112.82608434783438 3.0
    vertex -134.38838221234536 -116.39691341678515 0.0
    vertex -134.38838221234536 -116.39691341678515 3.0
  endloop
endfacet
facet normal -1.0 0.0 0.0
  outer loop
    vertex -134.38838221234536 -116.39691341678515 0.0
    vertex -134.38838221234536 -112.82608434783438 3.0
    vertex -134.38838221234536 -112.82608434783438 0.0
  endloop
endfacet
facet normal -0.0 -1.0 -0.0
  outer loop
    vertex -134.38838221234536 -112.82608434783438 3.0
    vertex -139.38857527431358 -112.82608434783438 0.0
    vertex -134.38838221234536 -112.82608434783438 0.0
  endloop
endfacet
facet normal -0.0 -1.0 -0.0
  outer loop
    vertex -139.38857527431358 -112.82608434783438 0.0
    vertex -134.38838221234536 -112.82608434783438 3.0
    vertex -139.38857527431358 -112.82608434783438 3.0
  endloop
endfacet
facet normal 1.0 0.0 0.0
  outer loop
    vertex -139.38857527431358 -112.82608434783438 0.0
    vertex -139.38857527431358 -116.39691341678515 3.0
    vertex -139.38857527431358 -116.39691341678515 0.0
  endloop
endfacet
facet normal 1.0 0.0 0.0
  outer loop
    vertex -139.38857527431358 -116.39691341678515 3.0
    vertex -139.38857527431358 -112.82608434783438 0.0
    vertex -139.38857527431358 -112.82608434783438 3.0
  endloop
endfacet
facet normal -0.0 -1.0 -0.0
  outer loop
    vertex -139.38857527431358 -116.39691341678515 3.0
    vertex -140.68203102452998 -116.39691341678515 0.0
    vertex -139.38857527431358 -116.39691341678515 0.0
  endloop
endfacet
facet normal -0.0 -1.0 -0.0
  outer loop
    vertex -140.68203102452998 -116.39691341678515 0.0
    vertex -139.38857527431358 -116.39691341678515 3.0
    vertex -140.68203102452998 -116.39691341678515 3.0
  endloop
endfacet
facet normal -1.0 0.0 0.0
  outer loop
    vertex -140.68203102452998 -112.82608434783438 3.0
    vertex -140.68203102452998 -116.39691341678515 0.0
    vertex -140.68203102452998 -116.39691341678515 3.0
  endloop
endfacet
facet normal -1.0 0.0 0.0
  outer loop
    vertex -140.68203102452998 -116.39691341678515 0.0
    vertex -140.68203102452998 -112.82608434783438 3.0
    vertex -140.68203102452998 -112.82608434783438 0.0
  endloop
endfacet
facet normal -0.0 -1.0 -0.0
  outer loop
    vertex -140.68203102452998 -112.82608434783438 3.0
    vertex -145.68222726148758 -112.82608434783438 0.0
    vertex -140.68203102452998 -112.82608434783438 0.0
  endloop
endfacet
facet normal -0.0 -1.0 -0.0
  outer loop
    vertex -145.68222726148758 -112.82608434783438 0.0
    vertex -140.68203102452998 -112.82608434783438 3.0
    vertex -145.68222726148758 -112.82608434783438 3.0
  endloop
endfacet
facet normal 1.0 0.0 0.0
  outer loop
    vertex -145.68222726148758 -112.82608434783438 0.0
    vertex -145.68222726148758 -116.39691341678515 3.0
    vertex -145.68222726148758 -116.39691341678515 0.0
  endloop
endfacet
facet normal 1.0 0.0 0.0
  outer loop
    vertex -145.68222726148758 -116.39691341678515 3.0
    vertex -145.68222726148758 -112.82608434783438 0.0
    vertex -145.68222726148758 -112.82608434783438 3.0
  endloop
endfacet
endsolid neopixeljig
